<?xml version="1.0" encoding="UTF-8" standalone="no"?>
<!-- Created with Inkscape (http://www.inkscape.org/) -->

<svg
   xmlns:dc="http://purl.org/dc/elements/1.1/"
   xmlns:cc="http://creativecommons.org/ns#"
   xmlns:rdf="http://www.w3.org/1999/02/22-rdf-syntax-ns#"
   xmlns:svg="http://www.w3.org/2000/svg"
   xmlns="http://www.w3.org/2000/svg"
   version="1.1"
   width="340.09"
   height="180.36"
   id="svg5605">
  <defs
     id="defs5607">
    <clipPath
       id="clipPath1936">
      <path
         d="m 37.44,37.44 594.72,0 0,738.72 -594.72,0 0,-738.72 z"
         id="path1938" />
    </clipPath>
  </defs>
  <metadata
     id="metadata5610">
    <rdf:RDF>
      <cc:Work
         rdf:about="">
        <dc:format>image/svg+xml</dc:format>
        <dc:type
           rdf:resource="http://purl.org/dc/dcmitype/StillImage" />
        <dc:title></dc:title>
      </cc:Work>
    </rdf:RDF>
  </metadata>
  <g
     transform="translate(0,-872.00215)"
     id="layer1">
    <g
       transform="matrix(4.2417339,0,0,-3.5945102,-1272.4094,1459.0964)"
       id="g1932">
      <g
         transform="translate(0.67357899,0)"
         clip-path="url(#clipPath1936)"
         id="g1934">
        <g
           transform="translate(301.38429,155.4287)"
           id="g1940">
          <path
             d="m 0,0 c 2.713,0.668 5.5,1.182 8.26,1.602 1.342,0.222 2.685,0.396 4.029,0.566 1.127,0.123 2.277,0.25 3.4,0.373 1.223,0.102 2.448,0.201 3.67,0.273 l 2.567,0.125 2.665,0.081 2.717,10e-4 2.68,-0.072 2.673,-0.119 C 33.951,2.762 35.246,2.662 36.546,2.568 37.841,2.447 39.084,2.326 40.358,2.205 44.904,1.742 49.43,1.193 53.979,0.756 55.2,0.635 56.422,0.514 57.617,0.418 l 2.448,-0.17 c 1.198,-0.066 2.416,-0.117 3.643,-0.139 1.148,-0.017 2.321,-0.045 3.496,-0.045 1.78,0.028 3.567,0.102 5.375,0.229 1.101,0.078 2.203,0.15 3.299,0.268 0.242,0.027 0.492,0.08 0.735,0.099 l 0.059,-40.828 c -0.809,-0.047 -1.589,-0.096 -2.375,-0.145 -2.518,-0.128 -5.032,-0.203 -7.581,-0.205 l -1.758,-0.003 c -1.224,0.025 -2.445,0.072 -3.695,0.117 -1.216,0.07 -2.443,0.146 -3.663,0.24 -1.222,0.096 -2.446,0.193 -3.646,0.314 -4.543,0.454 -9.091,1.014 -13.638,1.477 -1.691,0.141 -3.378,0.303 -5.063,0.43 l -2.591,0.168 c -1.324,0.07 -2.641,0.115 -3.958,0.166 l -2.683,0.023 -2.697,-0.035 -2.594,-0.119 -2.496,-0.155 -2.396,-0.218 c -1.123,-0.106 -2.242,-0.227 -3.367,-0.377 -1.024,-0.123 -2.032,-0.274 -3.057,-0.416 -1.176,-0.198 -2.348,-0.395 -3.519,-0.614 -0.704,-0.146 -1.442,-0.275 -2.174,-0.421 -1.225,-0.268 -2.469,-0.541 -3.69,-0.885 L -0.633,-41 -0.684,-0.172 C -0.445,-0.1 -0.225,-0.049 0,0"
             id="path1942"
             style="fill:#ea1f29;fill-opacity:1;fill-rule:evenodd;stroke:none" />
        </g>
        <g
           transform="translate(331.355,157.4014)"
           id="g1944">
          <path
             d="m 0,0 2.613,-0.117 c 1.298,-0.072 2.596,-0.168 3.89,-0.266 1.272,-0.125 2.518,-0.215 3.791,-0.338 4.544,-0.461 9.094,-1.015 13.613,-1.472 1.225,-0.123 2.447,-0.241 3.672,-0.34 l 2.445,-0.17 c 1.218,-0.07 2.443,-0.111 3.688,-0.139 0.982,-0.025 1.986,-0.047 2.986,-0.047 2.982,0.032 5.964,0.18 8.919,0.477 l 0.052,-0.002 0.048,-38.82 c -2.813,-0.172 -5.625,-0.25 -8.434,-0.282 -1.167,-0.002 -2.346,0 -3.497,0.024 l -2.44,0.094 c -1.204,0.072 -2.416,0.14 -3.621,0.238 -1.226,0.096 -2.442,0.195 -3.666,0.312 -4.523,0.461 -9.075,1.016 -13.622,1.475 -1.272,0.123 -2.516,0.223 -3.788,0.336 -1.32,0.099 -2.617,0.195 -3.912,0.264 l -2.664,0.121 -2.685,0.07 -2.719,0 -2.659,-0.082 -2.569,-0.145 -2.47,-0.179 c -1.17,-0.125 -2.328,-0.223 -3.496,-0.369 l -2.151,-0.276 c -3.691,-0.515 -7.334,-1.16 -10.951,-2.06 L -29.678,-2.9 c 2.395,0.589 4.817,1.033 7.207,1.427 0.959,0.149 1.887,0.297 2.84,0.422 1.416,0.196 2.861,0.367 4.276,0.518 1.201,0.121 2.376,0.226 3.566,0.32 l 2.496,0.152 2.596,0.1 2.689,0.033 L -1.342,0.047 0,0 z"
             id="path1946"
             style="fill:#ffffff;fill-opacity:1;fill-rule:evenodd;stroke:none" />
        </g>
        <g
           transform="translate(315.26711,122.0537)"
           id="g1948">
          <path
             d="M 0,0 C -0.102,-0.119 -0.201,-0.27 -0.273,-0.467 -0.344,-0.684 -0.418,-1.125 0,-1.221 L 0,0 z m -0.002,1.957 c -0.199,0.025 -0.42,0.025 -0.611,0.025 L -1.322,1.979 -1.664,1 -0.979,1.002 c 0.139,0.002 0.342,0.002 0.584,0.025 l -0.214,-0.588 -1.278,0 -0.363,-1.027 0.832,0.004 c 0.119,-0.004 0.242,0 0.629,0.021 l -0.24,-0.615 -2.104,0 c 0.344,0.758 1.125,2.987 1.363,3.742 l 1.768,0 0,-0.607 z M 4.227,1.076 4.416,1.623 3.883,1.617 4.125,2.305 3.514,2.133 3.318,1.617 3,1.617 2.805,1.076 l 0.324,0 C 3.08,0.936 2.613,-0.242 2.541,-0.535 2.344,-1.074 2.492,-1.244 2.906,-1.244 c 0.153,0 0.317,0.025 0.514,0.072 l 0.269,0.59 C 3.566,-0.611 3.49,-0.654 3.324,-0.656 c -0.195,0 -0.168,0.195 -0.101,0.437 0.076,0.198 0.394,1.055 0.465,1.295 l 0.539,0 z M 0,-1.221 0,0 C 0.555,0.584 1.537,0.414 1.709,0.932 1.807,1.197 1.588,1.223 1.412,1.223 1.117,1.223 0.805,1.129 0.51,1.004 l 0.219,0.512 c 0.343,0.099 0.683,0.173 1.007,0.173 0.358,0 0.78,-0.121 0.582,-0.732 C 2.199,0.566 1.832,-0.34 1.541,-1.176 l -0.586,0 C 1.049,-0.928 1.15,-0.678 1.488,0.268 1.193,0 0.465,0.021 0.316,-0.465 0.219,-0.732 0.387,-0.807 0.557,-0.807 c 0.121,0 0.25,0.047 0.373,0.1 L 0.656,-1.195 C 0.51,-1.246 0.387,-1.248 0.242,-1.246 0.146,-1.248 0.07,-1.244 0,-1.221 m 9.434,1.6 C 9.389,0.277 9.359,0.209 9.332,0.133 9.236,-0.16 9.119,-0.721 9.434,-1.039 l 0,1.418 z m 0,2.201 0,-0.539 C 9.039,0.965 8.652,-0.111 8.285,-1.162 L 7.602,-1.164 c 0.197,0.465 0.363,0.932 0.634,1.662 l -1.441,0 C 6.57,-0.09 6.4,-0.629 6.211,-1.168 l -0.682,0 c 0.434,1.15 0.869,2.25 1.356,3.742 l 0.664,0 C 7.398,2.207 7.275,1.844 7.012,1.084 l 1.418,0 C 8.479,1.182 8.773,2.041 8.969,2.576 L 9.434,2.58 z M 0.336,2.564 0.115,1.955 l -0.117,0.002 0,0.607 0.338,0 z m 9.098,-0.523 0,0.539 0.191,-0.004 C 9.553,2.41 9.502,2.213 9.434,2.041 m 1.2,-0.385 -0.002,-0.468 C 10.408,1.066 10.216,0.844 10.094,0.578 L 10.632,0.576 10.634,0.186 9.947,0.182 9.922,0.086 c -0.17,-0.516 0.004,-0.807 0.395,-0.805 0.091,0 0.192,-0.002 0.317,0.024 l 0,-0.491 c -0.2,-0.021 -0.363,-0.046 -0.538,-0.046 -0.319,-0.004 -0.537,0.07 -0.662,0.193 l 0,1.418 c 0.197,0.463 0.566,1.078 1.2,1.277 m 0,-2.842 0,0.491 c 0.145,0.047 0.325,0.099 0.465,0.148 l -0.269,-0.59 -0.196,-0.049 m 1.023,0.809 0,-0.686 c -0.144,0.192 -0.069,0.467 -0.022,0.61 l 0.022,0.076 m 0,1.758 0,-0.826 -0.025,-0.049 C 11.588,0.41 11.538,0.283 11.507,0.186 l -0.873,0 -0.002,0.39 0.44,0.002 c 0.145,0.412 0.1,0.658 -0.218,0.658 l -0.222,-0.048 0.002,0.468 c 0.119,0.022 0.241,0.043 0.384,0.047 0.297,0 0.52,-0.098 0.639,-0.322 m 0,-0.826 c 0.102,0.357 0.102,0.662 0,0.826 l 0,-0.826 z m 2.5,-1.465 c -0.025,-0.106 -0.052,-0.174 -0.099,-0.246 l 0.099,0 0,0.246 z M 14.154,1.535 14.15,0.826 C 14.005,0.385 13.692,-0.422 13.446,-1.16 l -0.609,0 c 0.092,0.248 0.192,0.494 0.559,1.445 -0.32,-0.267 -1.029,-0.242 -1.203,-0.738 -0.063,-0.262 0.082,-0.336 0.254,-0.336 0.12,0 0.24,0.045 0.362,0.1 L 12.567,-1.18 c -0.142,-0.05 -0.292,-0.05 -0.418,-0.05 -0.267,0 -0.415,0.068 -0.492,0.167 l 0,0.686 c 0.39,1.049 1.739,0.713 1.935,1.324 0.096,0.27 -0.122,0.289 -0.299,0.293 -0.268,0 -0.585,-0.095 -0.901,-0.22 l 0.217,0.513 c 0.345,0.098 0.684,0.172 1.004,0.172 0.196,0 0.415,-0.047 0.541,-0.17 M 14.15,0.826 14.2,0.973 c 0.096,0.267 0.071,0.465 -0.046,0.562 L 14.15,0.826 z m 1.688,-0.953 c -0.067,-0.143 -0.117,-0.293 -0.15,-0.391 -0.117,-0.414 -0.064,-0.609 0.15,-0.683 l 0,1.074 z M 15.833,2.588 15.837,2.023 C 15.446,0.973 15.062,-0.102 14.69,-1.156 l -0.533,0 0,0.246 c 0.408,1.053 0.798,2.101 1.264,3.496 l 0.412,0.002 z m 0.004,-0.565 c 0.074,0.194 0.142,0.395 0.222,0.563 l -0.226,0.002 0.004,-0.565 z m 1.493,-2.494 c -0.075,-0.215 -0.169,-0.457 -0.263,-0.681 l 0.263,0 0,0.681 z m -0.005,2.108 0,-0.539 -0.47,0 c -0.063,-0.243 -0.408,-1.1 -0.452,-1.295 -0.077,-0.248 -0.095,-0.442 0.071,-0.448 0.172,0.006 0.267,0.055 0.368,0.082 l -0.267,-0.589 c -0.171,-0.047 -0.346,-0.073 -0.487,-0.073 -0.101,0 -0.177,-0.002 -0.25,0.024 l 0,1.074 C 16.01,0.342 16.257,1 16.278,1.094 l -0.295,0 0.197,0.541 0.319,0 0.198,0.515 0.608,0.174 -0.24,-0.689 0.26,0.002 z m 0,-0.539 0.074,0 0.2,0.537 -0.274,0.002 0,-0.539 z m 2.383,-3.03 0,-0.56 c -0.149,0 -0.295,0.023 -0.444,0.076 l 0.149,0.584 c 0.071,-0.051 0.142,-0.102 0.295,-0.1 m -0.003,3.621 0,-1.834 c -0.125,-0.32 -0.25,-0.662 -0.371,-1.007 l -0.633,0 c 0.242,0.543 0.462,1.078 0.632,1.615 0.121,0.42 0.051,0.611 -0.271,0.611 -0.338,0 -0.633,-0.316 -0.803,-0.732 -0.221,-0.444 -0.488,-1.246 -0.587,-1.494 l -0.342,0 0,0.681 c 0.386,1.035 0.754,2.035 1.095,3.059 l 0.608,0.004 C 18.867,2.131 18.668,1.637 18.5,1.178 c 0.321,0.414 0.661,0.535 1.029,0.535 l 0.176,-0.024 m 0,-1.834 c 0.146,0.413 0.29,0.756 0.341,0.952 0.192,0.588 -0.007,0.832 -0.341,0.882 l 0,-1.834 z m 2.644,-0.533 -0.686,-1.15 0.409,-0.006 0.277,0.348 0,0.808 z m -0.011,2.176 0,-0.881 -1.585,-2.396 c -0.199,-0.319 -0.485,-0.713 -1.045,-0.713 l 0,0.56 0.067,-0.025 c 0.292,0 0.562,0.42 0.757,0.738 L 20.7,1.639 21.312,1.643 C 21.216,0.912 21.192,0.195 21.068,-0.535 l 0.027,0 c 0.385,0.681 0.83,1.346 1.243,2.033 m 0,-0.881 0,0.881 0.1,0.141 0.612,0.004 -0.712,-1.026 z m 0.011,-2.103 0,0.808 0.04,0.073 0.639,0 -0.679,-0.881 z m 5.759,1.642 C 27.963,-0.283 27.792,-0.725 27.62,-1.139 l 0.489,0 -0.001,1.295 z m -0.004,2.444 0,-0.606 C 27.934,2.018 27.733,2.018 27.495,2.018 27.132,1.064 26.788,0.082 26.374,-1.139 l -0.658,-0.002 c 0.363,0.932 0.754,2.079 1.146,3.159 -0.636,0 -0.712,-0.028 -0.904,-0.028 l 0.222,0.61 1.924,0 z m 0,-0.606 0.27,0 0.218,0.606 -0.488,0 0,-0.606 z m 2.498,-2.932 -0.097,-0.197 0.099,0.002 -0.002,0.195 z m -0.004,2.463 0.004,-0.73 C 30.477,0.453 30.164,-0.326 29.896,-1.137 l -0.639,0 c 0.248,0.541 0.469,1.08 0.636,1.616 C 30.018,0.895 29.94,1.09 29.624,1.088 29.285,1.09 28.987,0.77 28.821,0.352 28.601,-0.086 28.33,-0.891 28.233,-1.137 l -0.124,-0.002 -0.001,1.295 c 0.317,0.813 0.588,1.641 0.876,2.448 l 0.617,0 C 29.403,2.141 29.229,1.656 29.065,1.189 c 0.315,0.416 0.655,0.54 1.015,0.54 0.232,-0.004 0.425,-0.055 0.518,-0.204 m 0.004,-0.73 0,0.023 c 0.119,0.346 0.098,0.565 -0.004,0.707 l 0.004,-0.73 z m 1.374,-1.484 c -0.05,-0.155 -0.125,-0.301 -0.172,-0.446 l 0.172,0.002 0,0.444 z m -0.003,2.345 0,-0.465 c -0.272,-0.685 -0.514,-1.42 -0.805,-2.326 l -0.564,0.002 -0.002,0.195 c 0.344,0.858 0.636,1.735 0.927,2.594 l 0.444,0 z m 0,1 0,-0.537 -0.272,0.002 0.166,0.535 0.106,0 z m 0,-0.537 0,0.537 0.537,0 -0.197,-0.535 -0.34,-0.002 z m 0,-0.928 c 0.048,0.149 0.119,0.317 0.166,0.465 l -0.166,0 0,-0.465 z m 2.791,-2.123 -0.071,-0.197 0.071,0.002 0,0.195 z m -0.004,2.467 0,-0.736 c -0.096,-0.34 -0.419,-1.123 -0.681,-1.93 l -0.637,0 c 0.222,0.539 0.436,1.076 0.633,1.615 0.121,0.418 0.046,0.614 -0.267,0.612 C 33.462,1.094 33.168,0.775 32.979,0.361 32.755,-0.08 32.51,-0.885 32.413,-1.133 l -0.437,0 0,0.444 c 0.262,0.707 0.557,1.439 0.846,2.345 l 0.616,0 -0.164,-0.461 c 0.306,0.389 0.655,0.537 0.99,0.539 0.228,0 0.4,-0.05 0.496,-0.199 m 0,-0.736 0.023,0.027 C 34.88,1.168 34.88,1.389 34.76,1.535 l 0,-0.736 z m 1.49,0.027 c -0.118,-0.123 -0.245,-0.267 -0.366,-0.39 0.07,-0.538 0.221,-1.024 0.269,-1.563 l 0.102,0 -0.005,1.953 z M 36.245,2.611 36.25,1.588 C 35.93,0.703 35.568,-0.346 35.3,-1.127 l -0.536,0 0,0.195 c 0.459,1.2 0.878,2.373 1.265,3.543 l 0.216,0 z M 36.25,1.588 c 0.146,0.391 0.268,0.736 0.389,1.027 L 36.245,2.611 36.25,1.588 z m 0.005,-2.715 -0.005,1.953 c 0.268,0.272 0.518,0.543 0.786,0.834 L 37.69,1.664 36.47,0.41 c 0.106,-0.537 0.246,-1.021 0.345,-1.537 l -0.56,0 z m 4.587,3.746 0,-0.541 -0.266,0.004 -0.368,-1 0.512,0.002 0.129,-0.002 0,-0.613 c -0.075,0.047 -0.195,0.047 -0.298,0.045 l -0.538,0 -0.389,-1.096 0.518,0 c 0.365,0 0.584,0.143 0.707,0.367 l 0.002,-0.734 C 40.628,-1.068 40.385,-1.121 40.12,-1.123 l -1.328,0.002 c 0.246,0.558 0.854,2.246 1.35,3.74 l 0.7,0 z m 1.229,-2.443 c -0.1,-0.244 -0.2,-0.735 0,-1.049 l 0,1.049 z m -0.004,2.299 0,-0.805 C 41.899,1.23 41.601,0.938 41.26,0.811 41.58,0.74 41.679,0.396 41.532,-0.094 41.384,-0.508 41.164,-0.779 40.851,-0.949 L 40.849,-0.215 40.942,0 c 0.101,0.275 0.025,0.42 -0.093,0.469 l 0,0.613 c 0.315,0.047 0.513,0.295 0.581,0.535 0.146,0.418 -0.096,0.461 -0.338,0.461 l -0.25,0 0,0.541 0.808,0.002 c 0.172,0 0.32,-0.023 0.417,-0.146 m 0,-0.805 0.024,0.094 c 0.118,0.369 0.076,0.59 -0.024,0.711 l 0,-0.805 z m 1.274,0.025 0,-0.468 C 43.143,1.109 42.944,0.887 42.821,0.623 l 0.524,-0.004 0,-0.392 -0.665,0 -0.026,-0.096 c -0.166,-0.518 0.003,-0.805 0.397,-0.805 0.095,0 0.191,0 0.294,0.02 l 0,-0.487 C 43.168,-1.164 43,-1.189 42.822,-1.191 c -0.409,0.002 -0.654,0.123 -0.751,0.318 l 0,1.049 c 0.138,0.447 0.534,1.273 1.27,1.519 m 0.004,-1.468 0.876,0 c 0.05,0.095 0.096,0.222 0.146,0.316 0.245,0.811 -0.054,1.203 -0.638,1.203 -0.124,0.002 -0.267,-0.023 -0.388,-0.051 l 0,-0.468 c 0.07,0.025 0.146,0.054 0.243,0.054 0.319,0 0.367,-0.246 0.221,-0.658 l -0.46,-0.004 0,-0.392 z m 0,-1.368 0,0.487 c 0.164,0.05 0.316,0.095 0.485,0.15 l -0.268,-0.59 -0.217,-0.047 m 3.007,0.838 -0.052,-0.172 c -0.121,-0.371 -0.095,-0.564 0.052,-0.662 l 0,0.834 z M 46.345,1.674 46.349,1.311 46.296,1.135 45.76,1.131 C 45.658,0.889 45.352,0.035 45.271,-0.162 45.2,-0.404 45.176,-0.6 45.378,-0.602 c 0.161,0 0.235,0.049 0.359,0.077 l -0.266,-0.594 c -0.171,-0.041 -0.346,-0.07 -0.513,-0.07 -0.415,0 -0.565,0.169 -0.363,0.71 0.093,0.29 0.529,1.467 0.577,1.614 l -0.292,-0.004 0.192,0.543 0.32,0 0.173,0.515 0.611,0.172 -0.221,-0.687 0.39,0 z m 0.004,-0.363 0.143,0.363 -0.147,0 0.004,-0.363 z M 48.063,0.258 48.036,0.182 C 47.934,-0.086 47.815,-0.6 48.063,-0.912 l 0,1.17 z m -0.001,1.42 0,-0.393 -0.053,-0.15 -0.539,0 c -0.099,-0.242 -0.415,-1.1 -0.461,-1.295 -0.101,-0.244 -0.124,-0.44 0.075,-0.44 0.166,0 0.241,0.047 0.363,0.075 l -0.268,-0.59 c -0.17,-0.047 -0.341,-0.071 -0.515,-0.074 -0.118,0 -0.242,0.003 -0.312,0.052 l 0,0.834 c 0.166,0.412 0.485,1.319 0.536,1.438 l -0.297,0 0.195,0.539 0.313,0 0.198,0.517 0.61,0.17 -0.239,-0.687 0.394,0.004 z m 0,-0.393 0.147,0.389 -0.147,0.004 0,-0.393 z M 49.334,1.703 49.33,1.236 C 49.109,1.117 48.914,0.898 48.793,0.627 l 0.541,0.002 0,-0.393 -0.688,-0.004 -0.022,-0.093 c -0.174,-0.516 -0.003,-0.807 0.393,-0.807 0.092,-0.002 0.191,-0.002 0.32,0.023 l 0,-0.488 c -0.203,-0.023 -0.367,-0.049 -0.548,-0.053 -0.381,0.004 -0.602,0.1 -0.726,0.274 l 0,1.17 c 0.167,0.463 0.558,1.222 1.271,1.445 m 0.003,-2.836 0,0.488 c 0.146,0.049 0.288,0.098 0.463,0.147 l -0.268,-0.586 -0.195,-0.049 m 0.968,0.315 0,-0.291 -0.093,0 c 0.029,0.097 0.071,0.197 0.093,0.291 m 0,2.3 0,-0.976 C 50.282,0.41 50.233,0.307 50.183,0.238 l -0.849,-0.002 0,0.393 0.437,0 c 0.146,0.414 0.095,0.656 -0.221,0.656 l -0.22,-0.049 0.004,0.467 c 0.12,0.029 0.241,0.049 0.36,0.049 0.293,0 0.489,-0.096 0.611,-0.27 m 0,-0.976 0.024,0.049 c 0.147,0.437 0.121,0.734 -0.024,0.927 l 0,-0.976 z m 0,-1.615 0,0.291 c 0.274,0.691 0.541,1.396 0.879,2.5 l 0.591,0 -0.145,-0.369 0.023,0 c 0.218,0.269 0.434,0.445 0.706,0.445 l 0.17,-0.024 -0.191,-0.662 -0.2,0.045 c -0.313,0 -0.584,-0.273 -0.779,-0.658 -0.143,-0.301 -0.341,-0.904 -0.437,-1.223 l -0.126,-0.345 -0.491,0 z"
             id="path1950"
             style="fill:#298d40;fill-opacity:1;fill-rule:evenodd;stroke:none" />
        </g>
        <g
           transform="translate(339.38429,125.60249)"
           id="g1952">
          <path
             d="m 0,0 31.554,5.424 c 1.2,0.217 2.129,1.271 2.129,2.545 l -0.022,12.467 c 0.004,0.707 -0.265,1.343 -0.731,1.806 -2.99,2.981 -12.942,5.41 -32.964,5.387 -20.019,-0.027 -29.968,-2.486 -32.945,-5.473 -0.464,-0.465 -0.734,-1.101 -0.732,-1.806 l 0.018,-12.473 c 0.002,-1.27 0.912,-2.318 2.127,-2.535 L 0,0 z"
             id="path1954"
             style="fill:#ea1f29;fill-opacity:1;fill-rule:evenodd;stroke:none" />
        </g>
        <g
           transform="translate(336.2251,134.30569)"
           id="g1956">
          <path
             d="M 0,0 C 5.471,1.352 12.1,-0.133 15.521,-1.594 12.342,-1.5 8.629,-1.871 5.383,-2.684 1.955,-3.549 -0.853,-4.672 -3.463,-6.73 -5.666,-5.047 -6.257,-1.6 0,0"
             id="path1958"
             style="fill:#298d40;fill-opacity:1;fill-rule:evenodd;stroke:none" />
        </g>
        <g
           transform="translate(312.7495,137.6494)"
           id="g1960">
          <path
             d="m 0,0 c -0.141,-0.004 -0.268,0 -0.395,-0.004 -0.826,0 -0.875,0.488 -0.876,0.635 0,0.119 0,2.346 -0.006,2.471 0,0.123 0.027,0.144 0.173,0.144 0.463,0.002 0.958,0.006 1.346,0.002 l 0.051,0 -0.004,1.713 c -0.223,-0.1 -0.496,-0.125 -0.764,-0.125 -0.828,0 -0.802,0.023 -0.802,0.268 0,0.097 0,2.105 -0.004,2.205 0,0.119 0.025,0.146 0.17,0.144 0.463,0.049 0.541,0.026 0.904,0.002 0.178,0 0.352,-0.027 0.492,-0.098 l 0,1.854 c -0.812,0 -3.646,-0.004 -3.963,-0.004 -0.273,0 -0.293,-0.074 -0.191,-0.215 0.094,-0.222 0.119,-0.615 0.121,-0.783 -0.002,-0.146 0.008,-7.582 0.012,-8.584 0.002,-0.906 0.584,-1.484 1.316,-1.484 0.176,0 1.617,0.002 2.719,0.002 L 0.295,0.021 C 0.195,0 0.1,-0.004 0,0 m 8.498,7.734 0,-1.783 C 8.252,5.973 7.961,5.973 7.6,5.922 c 0,0 0.005,-2.295 0.005,-2.443 L 8.018,3.48 C 8.186,3.479 8.357,3.529 8.504,3.578 L 8.508,0.326 C 8.063,1.156 7.775,2.014 7.6,2.328 c 0,-0.191 0.005,-3.027 0.009,-3.516 0,-0.515 -0.39,-0.66 -0.586,-0.662 -0.226,0.002 -1.224,0 -1.443,0.002 C 5.359,-1.855 5.26,-1.754 5.26,-1.244 5.252,1.18 5.248,6.559 5.246,6.678 c 0,0.174 0,0.611 -0.123,0.832 -0.096,0.172 -0.066,0.219 0.225,0.222 0.295,0 2.252,0 3.15,0.002 M 0.293,3.248 C 1.174,3.229 1.859,2.564 1.859,1.611 1.859,0.682 1.439,0.1 0.295,0.021 l 0.004,-1.878 1.273,0 C 5.064,-1.854 5.6,3.527 2.1,4.084 4.25,4.5 4.266,9.219 0.504,9.211 l -0.219,0 0,-1.854 C 0.68,7.209 1.014,6.869 1.02,6.186 1.02,5.527 0.727,5.135 0.289,4.961 L 0.293,3.248 z m 15.162,-4.426 c -10e-4,0.492 -0.009,7.553 -0.009,7.553 0,0.711 -0.419,1.369 -1.199,1.365 -0.539,0.004 -0.959,-0.004 -1.08,0 -0.287,0 -0.313,-0.051 -0.22,-0.244 0.147,-0.193 0.147,-0.613 0.147,-0.785 0,-0.143 0.008,-5.5 0.014,-7.941 0,-0.491 0.096,-0.612 0.321,-0.612 0.189,0.004 1.22,0.004 1.415,0.004 0.195,0 0.61,0.149 0.611,0.66 M 8.508,0.326 8.504,3.578 c 0.588,0.172 0.902,0.711 0.902,1.297 0,0.539 -0.148,0.977 -0.908,1.076 l 0,1.783 0.465,0 C 12.88,7.74 12.27,3.17 10.1,2.529 c 0.191,-0.535 1.687,-3.297 2.592,-4.105 0.201,-0.168 0.125,-0.24 -0.045,-0.24 -0.274,-0.051 -1.668,-0.106 -2.504,0.261 -0.657,0.295 -1.221,1.102 -1.635,1.881 m 13.397,0.26 c -0.316,-1.125 -0.583,-1.953 -0.608,-2.072 -0.096,-0.301 0.05,-0.342 0.2,-0.342 0.092,-0.002 0.263,-0.002 0.412,0 l -0.004,2.414 z m -0.008,7.043 0,-1.76 c -0.558,0 -1.388,-0.002 -1.446,-0.002 -0.163,0 -0.269,-0.119 -0.269,-0.367 0.007,-1.883 0.011,-6.283 0.011,-6.674 0.004,-0.512 -0.387,-0.656 -0.608,-0.656 l -1.318,0 c -0.196,0 -0.294,0.117 -0.295,0.603 0,1.737 -0.008,4.965 -0.011,6.725 0,0.295 -0.093,0.369 -0.511,0.363 l -1.346,0 C 16.006,5.857 15.958,5.91 15.961,6.082 l -0.003,1.49 c 0.002,0.073 0.048,0.176 0.197,0.176 0.146,-0.004 4.296,0 5.155,0 0.216,0.004 0.408,-0.047 0.587,-0.119 m 0,-1.76 c 0.219,0 0.416,0.002 0.461,0 0.172,0 0.172,0.149 0.172,0.486 0,0.395 -0.128,1.008 -0.633,1.274 l 0,-1.76 z m 2.836,1.887 0.005,-3.078 C 24.539,4.014 24.271,3.156 24.056,2.377 l 0.067,0 c 0.174,0.197 0.368,0.342 0.62,0.439 l 0,-1.515 C 24.226,1.301 23.785,1.297 23.734,1.297 23.682,1.102 23.127,-0.928 23.102,-1.049 23.056,-1.17 22.931,-1.828 22.2,-1.83 c -0.045,0 -0.169,0.002 -0.291,0.002 l -0.004,2.414 c 0.68,2.424 1.725,6.09 1.774,6.215 0.076,0.22 0.121,0.488 -0.075,0.709 -0.143,0.172 0.026,0.242 0.196,0.246 l 0.933,0 z M 44.292,2.967 c 0,1.949 -0.004,3.719 -0.004,3.787 -0.004,0.172 -0.004,0.584 -0.121,0.807 -0.099,0.171 -0.073,0.242 0.192,0.242 0.121,0.002 0.389,0.002 0.93,0.002 0.515,0 0.786,-0.459 0.79,-0.975 -0.004,-0.223 0.006,-8.582 0.01,-8.625 -0.079,0 -0.567,-0.004 -0.688,-0.004 -0.297,0 -0.807,0.143 -1.22,0.662 -0.418,0.53 -3.726,4.826 -3.871,5.004 0,-0.342 0.003,-4.82 0.003,-5.137 0,-0.363 -0.216,-0.535 -0.557,-0.539 -0.222,0.004 -0.658,0 -0.883,0 -0.222,0 -0.32,0.096 -0.316,0.588 -0.004,2.446 -0.014,7.821 -0.014,7.967 0,0.17 0,0.59 -0.125,0.811 -0.1,0.166 -0.1,0.216 0.195,0.216 0.127,0 0.543,0 1.076,0.002 0.371,-0.002 1.007,-0.148 1.396,-0.681 0.562,-0.76 2.917,-3.74 3.207,-4.127 M 35.473,2.949 C 35.172,3.342 32.822,6.32 32.26,7.084 31.868,7.619 31.234,7.762 30.862,7.766 30.325,7.762 29.913,7.762 29.785,7.762 c -0.291,0 -0.288,-0.049 -0.188,-0.219 0.122,-0.223 0.125,-0.641 0.122,-0.809 0.003,-0.144 0.008,-5.523 0.008,-7.968 0.002,-0.493 0.103,-0.582 0.32,-0.586 0.217,0 0.661,0.004 0.879,0.004 0.346,0 0.562,0.17 0.562,0.539 0,0.316 -0.008,4.789 -0.008,5.132 0.147,-0.175 3.455,-4.474 3.874,-5.007 0.418,-0.512 0.927,-0.661 1.221,-0.657 l 0.688,0 c 0,0.045 -0.012,8.409 -0.015,8.625 0,0.516 -0.265,0.979 -0.783,0.979 -0.539,0 -0.809,-0.002 -0.93,0 -0.268,0 -0.292,-0.076 -0.196,-0.244 0.125,-0.223 0.126,-0.639 0.126,-0.811 0,-0.066 0.007,-1.83 0.008,-3.791 m 14.228,-4.084 c 0,-0.486 -0.391,-0.66 -0.608,-0.66 -0.2,0.002 -1.197,0 -1.418,0 -0.221,0 -0.321,0.119 -0.323,0.607 0,2.446 -0.004,7.799 -0.004,7.942 0,0.172 -0.005,0.592 -0.126,0.818 -0.099,0.162 -0.076,0.213 0.195,0.213 0.122,0 0.538,0 1.077,0.004 0.783,0 1.194,-0.658 1.195,-1.371 0,0 0.012,-7.039 0.012,-7.553 m -24.958,2.436 0,1.515 c 0.193,0.075 0.406,0.122 0.654,0.122 -0.149,0.466 -0.637,1.884 -0.637,1.884 l -0.022,-0.144 -0.005,3.078 0.905,0 c 0.242,0.021 0.68,-0.119 0.901,-0.656 0.195,-0.539 2.853,-8.432 2.896,-8.606 0.071,-0.219 0,-0.314 -0.168,-0.31 -0.391,-0.004 -1.809,-0.006 -1.908,-0.004 -0.149,-0.002 -0.39,-0.051 -0.585,0.556 -0.106,0.34 -0.787,2.416 -0.838,2.567 C 25.859,1.301 25.276,1.301 24.743,1.301 M 53.575,7.814 53.58,4.715 C 53.388,4.049 53.139,3.197 52.901,2.414 L 52.994,2.41 c 0.174,0.199 0.368,0.346 0.595,0.444 L 53.587,1.34 C 53.097,1.334 52.626,1.334 52.605,1.334 52.557,1.141 52.001,-0.863 51.977,-1.008 c -0.048,-0.121 -0.17,-0.781 -0.927,-0.781 -0.074,-0.002 -0.515,-0.002 -0.682,-0.002 -0.172,0 -0.321,0.049 -0.225,0.34 0.145,0.365 2.333,8.123 2.381,8.293 0.078,0.215 0.148,0.488 -0.078,0.73 -0.139,0.147 0.055,0.242 0.225,0.242 l 0.904,0 z M 53.587,1.34 53.589,2.854 C 53.78,2.932 54.001,2.975 54.267,2.975 54.123,3.441 53.63,4.861 53.63,4.861 L 53.58,4.715 53.575,7.814 c 0.442,0.004 0.857,0.004 0.931,0.004 0.246,0 0.683,-0.123 0.911,-0.679 0.217,-0.541 2.868,-8.436 2.92,-8.608 0.068,-0.217 -0.004,-0.312 -0.174,-0.312 l -1.907,0 C 56.108,-1.787 55.862,-1.834 55.664,-1.227 55.546,-0.887 54.835,1.191 54.78,1.336 54.73,1.34 54.147,1.34 53.587,1.34"
             id="path1962"
             style="fill:#ffffff;fill-opacity:1;fill-rule:evenodd;stroke:none" />
        </g>
        <g
           transform="translate(375.4019,161.9561)"
           id="g1964">
          <path
             d="m 0,0 0,0 0,-0.467 c -1.173,-0.002 -2.128,-0.955 -2.128,-2.127 0,-0.586 0.248,-1.119 0.623,-1.49 0.387,-0.396 0.928,-0.637 1.513,-0.633 l 0,-0.441 c -0.71,-0.002 -1.368,0.265 -1.831,0.754 -0.475,0.466 -0.765,1.103 -0.765,1.81 C -2.593,-1.178 -1.415,-0.002 0,0 m 0,0 c 0.707,0.004 1.346,-0.289 1.831,-0.758 0.472,-0.459 0.76,-1.123 0.765,-1.83 0,-1.416 -1.172,-2.57 -2.588,-2.57 l 0,0.441 C 1.178,-4.721 2.132,-3.76 2.129,-2.59 2.124,-2 1.882,-1.465 1.515,-1.076 l -0.022,0 C 1.122,-0.682 0.586,-0.467 0,-0.467 L 0,0 z"
             id="path1966"
             style="fill:#ea1f29;fill-opacity:1;fill-rule:nonzero;stroke:none" />
        </g>
        <g
           transform="translate(374.3804,158.0439)"
           id="g1968">
          <path
             d="m 0,0 -0.008,2.617 1.082,0 0,-0.441 -0.13,0 -0.412,0 0,-0.658 0.397,0 0.145,0 0,-0.567 -0.171,0.127 C 0.85,1.1 0.757,1.1 0.633,1.1 L 0.532,1.1 0.537,-0.002 0,0 z m 1.074,2.617 0.046,0 C 1.39,2.617 1.584,2.594 1.729,2.566 1.849,2.521 1.948,2.42 2.025,2.303 2.095,2.182 2.146,2.055 2.146,1.887 2.146,1.691 2.073,1.547 1.975,1.418 1.856,1.273 1.688,1.201 1.463,1.176 1.562,1.102 1.657,1.031 1.735,0.955 1.808,0.859 1.904,0.736 2.028,0.518 L 2.345,0 1.735,0 1.346,0.586 C 1.216,0.787 1.12,0.904 1.074,0.951 l 0,0.567 c 0.168,0 0.272,0.027 0.318,0.027 L 1.536,1.668 1.613,1.865 C 1.612,1.959 1.584,2.027 1.536,2.082 1.482,2.123 1.412,2.152 1.316,2.176 l -0.242,0 0,0.441 z"
             id="path1970"
             style="fill:#ea1f29;fill-opacity:1;fill-rule:evenodd;stroke:none" />
        </g>
      </g>
    </g>
  </g>
</svg>
